<?xml version="1.0" encoding="utf-8"?>
<!-- Generator: Adobe Illustrator 25.0.1, SVG Export Plug-In . SVG Version: 6.00 Build 0)  -->
<svg version="1.1" id="Шар_1" xmlns="http://www.w3.org/2000/svg" xmlns:xlink="http://www.w3.org/1999/xlink" x="0px" y="0px"
	 viewBox="0 0 113 113" style="enable-background:new 0 0 113 113;" xml:space="preserve">
<style type="text/css">
	.st0{fill:none;}
	.st1{fill:#3B82F6;}
</style>
<g>
	<rect class="st0" width="113" height="113"/>
</g>
<g>
	<g>
		<polygon class="st1" points="39.1,82.3 39.1,60.3 33.3,56.3 33.3,78.7 		"/>
		<polygon class="st1" points="48.6,15.5 56.5,7.9 64.5,15.5 64.5,27.8 64.5,33.6 73.7,33.6 81,27.8 70.2,27.8 70.2,21.1 70.2,13.2 
			64.5,7.7 64.5,7.7 60.6,3.9 60.6,3.9 56.5,0 54.3,2.2 52.4,3.9 52.4,3.9 48.6,7.7 48.6,7.7 42.8,13.2 42.8,21.1 42.8,36.3 
			48.6,40.9 		"/>
		<rect x="52.6" y="19.1" class="st1" width="7.9" height="5.8"/>
		<polygon class="st1" points="93.2,80.3 93.2,31.4 93.2,23.5 93.2,23.3 60.5,48.9 60.5,56.1 60.5,56.1 60.5,62.1 66.2,57.9 
			66.2,51.7 87.4,35.7 87.4,80.3 87.4,88.8 56.5,106.6 25.6,88.8 25.6,80.3 25.6,35.7 46.8,51.7 46.8,87.1 52.6,90.7 52.6,56.1 
			52.6,48.9 19.8,23.3 19.8,31.4 19.8,31.4 19.8,80.3 15.8,80.3 15.8,83.2 15.8,90.5 19.8,92.8 19.8,92.8 25.6,96 25.6,96 56.5,113 
			87.8,95.8 93.2,92.8 93.2,92.8 97.3,90.5 97.3,83.2 97.3,80.3 		"/>
		<polygon class="st1" points="76.8,55.3 60.5,66.9 60.5,72.6 76.8,61.2 		"/>
		<polygon class="st1" points="76.8,64.9 60.5,76 60.5,81.7 76.8,70.9 		"/>
		<polygon class="st1" points="60.5,90.7 76.8,80.5 76.8,74.5 60.5,85.1 		"/>
	</g>
</g>
</svg>
