<svg id="Шар_1" data-name="Шар 1" xmlns="http://www.w3.org/2000/svg" viewBox="0 0 46.12 64"><defs><style>.cls-1{fill:#507abd;}</style></defs><polygon class="cls-1" points="13.2 46.6 13.2 34.15 9.93 31.87 9.93 44.57 13.2 46.6"/><polygon class="cls-1" points="18.56 8.8 23.06 4.46 27.56 8.8 27.56 15.75 27.56 19.02 32.79 19.02 36.91 15.75 30.83 15.75 30.83 11.95 30.83 7.49 27.56 4.34 27.56 4.34 25.37 2.23 25.37 2.23 23.06 0 21.77 1.24 20.75 2.23 20.75 2.23 18.56 4.34 18.56 4.34 15.29 7.49 15.29 11.95 15.29 20.57 18.56 23.16 18.56 8.8"/><rect class="cls-1" x="20.83" y="10.79" width="4.45" height="3.27"/><polygon class="cls-1" points="43.83 45.47 43.83 17.77 43.83 13.3 43.83 13.2 25.29 27.68 25.29 31.76 25.29 31.76 25.29 35.14 28.55 32.77 28.55 29.29 40.56 20.23 40.56 45.47 40.56 50.29 23.06 60.37 5.56 50.29 5.56 45.47 5.56 20.23 17.57 29.29 17.57 49.33 20.83 51.37 20.83 31.76 20.83 27.68 2.29 13.2 2.29 17.77 2.29 17.77 2.29 45.47 0 45.47 0 47.09 0 51.25 2.29 52.52 2.29 52.52 5.56 54.32 5.56 54.32 23.06 64 40.74 54.22 43.83 52.52 43.83 52.52 46.12 51.25 46.12 47.09 46.12 45.47 43.83 45.47"/><polygon class="cls-1" points="34.56 31.28 25.29 37.88 25.29 41.1 34.56 34.67 34.56 31.28"/><polygon class="cls-1" points="34.56 36.73 25.29 43.01 25.29 46.23 34.56 40.14 34.56 36.73"/><polygon class="cls-1" points="25.29 51.37 34.56 45.57 34.56 42.17 25.29 48.15 25.29 51.37"/></svg>